<svg id="mermaid-23518f7c-9a00-4bde-96d0-633c3f357350" width="100%" xmlns="http://www.w3.org/2000/svg" class="flowchart" style="max-width: 1554.60009765625px;" viewBox="0 0 1554.60009765625 496.4485168457031" role="graphics-document document" aria-roledescription="flowchart-v2"><style>#mermaid-23518f7c-9a00-4bde-96d0-633c3f357350{font-family:"trebuchet ms",verdana,arial,sans-serif;font-size:16px;fill:#ccc;}#mermaid-23518f7c-9a00-4bde-96d0-633c3f357350 .error-icon{fill:#a44141;}#mermaid-23518f7c-9a00-4bde-96d0-633c3f357350 .error-text{fill:#ddd;stroke:#ddd;}#mermaid-23518f7c-9a00-4bde-96d0-633c3f357350 .edge-thickness-normal{stroke-width:1px;}#mermaid-23518f7c-9a00-4bde-96d0-633c3f357350 .edge-thickness-thick{stroke-width:3.5px;}#mermaid-23518f7c-9a00-4bde-96d0-633c3f357350 .edge-pattern-solid{stroke-dasharray:0;}#mermaid-23518f7c-9a00-4bde-96d0-633c3f357350 .edge-thickness-invisible{stroke-width:0;fill:none;}#mermaid-23518f7c-9a00-4bde-96d0-633c3f357350 .edge-pattern-dashed{stroke-dasharray:3;}#mermaid-23518f7c-9a00-4bde-96d0-633c3f357350 .edge-pattern-dotted{stroke-dasharray:2;}#mermaid-23518f7c-9a00-4bde-96d0-633c3f357350 .marker{fill:lightgrey;stroke:lightgrey;}#mermaid-23518f7c-9a00-4bde-96d0-633c3f357350 .marker.cross{stroke:lightgrey;}#mermaid-23518f7c-9a00-4bde-96d0-633c3f357350 svg{font-family:"trebuchet ms",verdana,arial,sans-serif;font-size:16px;}#mermaid-23518f7c-9a00-4bde-96d0-633c3f357350 p{margin:0;}#mermaid-23518f7c-9a00-4bde-96d0-633c3f357350 .label{font-family:"trebuchet ms",verdana,arial,sans-serif;color:#ccc;}#mermaid-23518f7c-9a00-4bde-96d0-633c3f357350 .cluster-label text{fill:#F9FFFE;}#mermaid-23518f7c-9a00-4bde-96d0-633c3f357350 .cluster-label span{color:#F9FFFE;}#mermaid-23518f7c-9a00-4bde-96d0-633c3f357350 .cluster-label span p{background-color:transparent;}#mermaid-23518f7c-9a00-4bde-96d0-633c3f357350 .label text,#mermaid-23518f7c-9a00-4bde-96d0-633c3f357350 span{fill:#ccc;color:#ccc;}#mermaid-23518f7c-9a00-4bde-96d0-633c3f357350 .node rect,#mermaid-23518f7c-9a00-4bde-96d0-633c3f357350 .node circle,#mermaid-23518f7c-9a00-4bde-96d0-633c3f357350 .node ellipse,#mermaid-23518f7c-9a00-4bde-96d0-633c3f357350 .node polygon,#mermaid-23518f7c-9a00-4bde-96d0-633c3f357350 .node path{fill:#1f2020;stroke:#ccc;stroke-width:1px;}#mermaid-23518f7c-9a00-4bde-96d0-633c3f357350 .rough-node .label text,#mermaid-23518f7c-9a00-4bde-96d0-633c3f357350 .node .label text{text-anchor:middle;}#mermaid-23518f7c-9a00-4bde-96d0-633c3f357350 .node .katex path{fill:#000;stroke:#000;stroke-width:1px;}#mermaid-23518f7c-9a00-4bde-96d0-633c3f357350 .node .label{text-align:center;}#mermaid-23518f7c-9a00-4bde-96d0-633c3f357350 .node.clickable{cursor:pointer;}#mermaid-23518f7c-9a00-4bde-96d0-633c3f357350 .arrowheadPath{fill:lightgrey;}#mermaid-23518f7c-9a00-4bde-96d0-633c3f357350 .edgePath .path{stroke:lightgrey;stroke-width:2.0px;}#mermaid-23518f7c-9a00-4bde-96d0-633c3f357350 .flowchart-link{stroke:lightgrey;fill:none;}#mermaid-23518f7c-9a00-4bde-96d0-633c3f357350 .edgeLabel{background-color:hsl(0, 0%, 34.4117647059%);text-align:center;}#mermaid-23518f7c-9a00-4bde-96d0-633c3f357350 .edgeLabel p{background-color:hsl(0, 0%, 34.4117647059%);}#mermaid-23518f7c-9a00-4bde-96d0-633c3f357350 .edgeLabel rect{opacity:0.5;background-color:hsl(0, 0%, 34.4117647059%);fill:hsl(0, 0%, 34.4117647059%);}#mermaid-23518f7c-9a00-4bde-96d0-633c3f357350 .labelBkg{background-color:rgba(87.75, 87.75, 87.75, 0.5);}#mermaid-23518f7c-9a00-4bde-96d0-633c3f357350 .cluster rect{fill:hsl(180, 1.5873015873%, 28.3529411765%);stroke:rgba(255, 255, 255, 0.25);stroke-width:1px;}#mermaid-23518f7c-9a00-4bde-96d0-633c3f357350 .cluster text{fill:#F9FFFE;}#mermaid-23518f7c-9a00-4bde-96d0-633c3f357350 .cluster span{color:#F9FFFE;}#mermaid-23518f7c-9a00-4bde-96d0-633c3f357350 div.mermaidTooltip{position:absolute;text-align:center;max-width:200px;padding:2px;font-family:"trebuchet ms",verdana,arial,sans-serif;font-size:12px;background:hsl(20, 1.5873015873%, 12.3529411765%);border:1px solid rgba(255, 255, 255, 0.25);border-radius:2px;pointer-events:none;z-index:100;}#mermaid-23518f7c-9a00-4bde-96d0-633c3f357350 .flowchartTitleText{text-anchor:middle;font-size:18px;fill:#ccc;}#mermaid-23518f7c-9a00-4bde-96d0-633c3f357350 :root{--mermaid-font-family:"trebuchet ms",verdana,arial,sans-serif;}</style><g><marker id="mermaid-23518f7c-9a00-4bde-96d0-633c3f357350_flowchart-v2-pointEnd" class="marker flowchart-v2" viewBox="0 0 10 10" refX="5" refY="5" markerUnits="userSpaceOnUse" markerWidth="8" markerHeight="8" orient="auto"><path d="M 0 0 L 10 5 L 0 10 z" class="arrowMarkerPath" style="stroke-width: 1px; stroke-dasharray: 1px, 0px;"></path></marker><marker id="mermaid-23518f7c-9a00-4bde-96d0-633c3f357350_flowchart-v2-pointStart" class="marker flowchart-v2" viewBox="0 0 10 10" refX="4.5" refY="5" markerUnits="userSpaceOnUse" markerWidth="8" markerHeight="8" orient="auto"><path d="M 0 5 L 10 10 L 10 0 z" class="arrowMarkerPath" style="stroke-width: 1px; stroke-dasharray: 1px, 0px;"></path></marker><marker id="mermaid-23518f7c-9a00-4bde-96d0-633c3f357350_flowchart-v2-circleEnd" class="marker flowchart-v2" viewBox="0 0 10 10" refX="11" refY="5" markerUnits="userSpaceOnUse" markerWidth="11" markerHeight="11" orient="auto"><circle cx="5" cy="5" r="5" class="arrowMarkerPath" style="stroke-width: 1px; stroke-dasharray: 1px, 0px;"></circle></marker><marker id="mermaid-23518f7c-9a00-4bde-96d0-633c3f357350_flowchart-v2-circleStart" class="marker flowchart-v2" viewBox="0 0 10 10" refX="-1" refY="5" markerUnits="userSpaceOnUse" markerWidth="11" markerHeight="11" orient="auto"><circle cx="5" cy="5" r="5" class="arrowMarkerPath" style="stroke-width: 1px; stroke-dasharray: 1px, 0px;"></circle></marker><marker id="mermaid-23518f7c-9a00-4bde-96d0-633c3f357350_flowchart-v2-crossEnd" class="marker cross flowchart-v2" viewBox="0 0 11 11" refX="12" refY="5.2" markerUnits="userSpaceOnUse" markerWidth="11" markerHeight="11" orient="auto"><path d="M 1,1 l 9,9 M 10,1 l -9,9" class="arrowMarkerPath" style="stroke-width: 2px; stroke-dasharray: 1px, 0px;"></path></marker><marker id="mermaid-23518f7c-9a00-4bde-96d0-633c3f357350_flowchart-v2-crossStart" class="marker cross flowchart-v2" viewBox="0 0 11 11" refX="-1" refY="5.2" markerUnits="userSpaceOnUse" markerWidth="11" markerHeight="11" orient="auto"><path d="M 1,1 l 9,9 M 10,1 l -9,9" class="arrowMarkerPath" style="stroke-width: 2px; stroke-dasharray: 1px, 0px;"></path></marker><g class="root"><g class="clusters"><g class="cluster " id="subGraph3" data-look="classic"><rect style="" x="336.23333740234375" y="328.5782642364502" width="234.25" height="136"></rect><g class="cluster-label " transform="translate(359.2750015258789, 328.5782642364502)"><foreignObject width="188.1666717529297" height="24"><div style="display: table-cell; white-space: nowrap; line-height: 1.5; max-width: 200px; text-align: center;" xmlns="http://www.w3.org/1999/xhtml"><span class="nodeLabel "><p>Dashboard (React/NextJS)</p></span></div></foreignObject></g></g><g class="cluster " id="Storage" data-look="classic"><rect style="" x="1322.5666809082031" y="27.908056259155273" width="224.03334045410156" height="454.6324062347412"></rect><g class="cluster-label " transform="translate(1407.5750198364258, 27.908056259155273)"><foreignObject width="54.01666259765625" height="24"><div style="display: table-cell; white-space: nowrap; line-height: 1.5; max-width: 200px; text-align: center;" xmlns="http://www.w3.org/1999/xhtml"><span class="nodeLabel "><p>Storage</p></span></div></foreignObject></g></g><g class="cluster " id="subGraph1" data-look="classic"><rect style="" x="729.1000061035156" y="8" width="457.40000915527344" height="480.44851875305176"></rect><g class="cluster-label " transform="translate(875.7000122070312, 8)"><foreignObject width="164.1999969482422" height="24"><div style="display: table-cell; white-space: nowrap; line-height: 1.5; max-width: 200px; text-align: center;" xmlns="http://www.w3.org/1999/xhtml"><span class="nodeLabel "><p>Golang Backend Server</p></span></div></foreignObject></g></g><g class="cluster " id="subGraph0" data-look="classic"><rect style="" x="8" y="80.5782642364502" width="562.4833374023438" height="228"></rect><g class="cluster-label " transform="translate(218.13333892822266, 80.5782642364502)"><foreignObject width="142.21665954589844" height="24"><div style="display: table-cell; white-space: nowrap; line-height: 1.5; max-width: 200px; text-align: center;" xmlns="http://www.w3.org/1999/xhtml"><span class="nodeLabel "><p>WordPress Frontend</p></span></div></foreignObject></g></g></g><g class="edgePaths"><path d="M240.633,142.578L248.6,142.578C256.567,142.578,272.5,142.578,288.433,142.578C304.367,142.578,320.3,142.578,330.453,142.578C340.606,142.578,344.978,142.578,348.683,142.578C352.389,142.578,355.428,142.578,356.947,142.578L358.467,142.578" id="L_WP_User_WP_JS_0" class=" edge-thickness-normal edge-pattern-solid edge-thickness-normal edge-pattern-solid flowchart-link" style="" marker-end="url(#mermaid-23518f7c-9a00-4bde-96d0-633c3f357350_flowchart-v2-pointEnd)"></path><path d="M544.25,142.578L548.622,142.578C552.994,142.578,561.739,142.578,579.329,142.578C596.919,142.578,623.356,142.578,649.792,142.578C676.228,142.578,702.664,142.578,720.589,145.495C738.513,148.412,747.927,154.245,756.773,159.727C765.62,165.209,773.9,170.34,778.04,172.906L782.18,175.471" id="L_WP_JS_API_Gateway_1" class=" edge-thickness-normal edge-pattern-solid edge-thickness-normal edge-pattern-solid flowchart-link" style="" marker-end="url(#mermaid-23518f7c-9a00-4bde-96d0-633c3f357350_flowchart-v2-pointEnd)"></path><path d="M542.042,246.578L546.782,246.578C551.522,246.578,561.003,246.578,578.961,246.578C596.919,246.578,623.356,246.578,649.792,246.578C676.228,246.578,702.664,246.578,718.86,245.328C735.055,244.078,741.011,241.578,746.351,239.336C751.692,237.094,756.418,235.11,758.781,234.118L761.144,233.127" id="L_WP_PHP_API_Gateway_2" class=" edge-thickness-normal edge-pattern-solid edge-thickness-normal edge-pattern-solid flowchart-link" style="" marker-end="url(#mermaid-23518f7c-9a00-4bde-96d0-633c3f357350_flowchart-v2-pointEnd)"></path><path d="M855.744,177.578L867.986,165.149C880.229,152.719,904.715,127.859,920.127,115.43C935.54,103,941.881,103,947.554,103C953.228,103,958.235,103,960.738,103L963.242,103" id="L_API_Gateway_Ingestion_3" class=" edge-thickness-normal edge-pattern-solid edge-thickness-normal edge-pattern-solid flowchart-link" style="" marker-end="url(#mermaid-23518f7c-9a00-4bde-96d0-633c3f357350_flowchart-v2-pointEnd)"></path><path d="M1148.458,90.913L1154.799,90.067C1161.139,89.221,1173.819,87.529,1191.499,86.684C1209.178,85.838,1231.856,85.838,1254.533,85.838C1277.211,85.838,1299.889,85.838,1313.67,88.158C1327.451,90.479,1332.336,95.119,1336.738,99.301C1341.139,103.483,1345.057,107.205,1347.016,109.066L1348.975,110.928" id="L_Ingestion_Redis_4" class=" edge-thickness-normal edge-pattern-solid edge-thickness-normal edge-pattern-solid flowchart-link" style="" marker-end="url(#mermaid-23518f7c-9a00-4bde-96d0-633c3f357350_flowchart-v2-pointEnd)"></path><path d="M1084.399,130L1101.415,147.306C1118.432,164.613,1152.466,199.225,1180.822,216.531C1209.178,233.838,1231.856,233.838,1254.533,233.838C1277.211,233.838,1299.889,233.838,1315.261,235.373C1330.633,236.908,1338.7,239.979,1346.144,242.812C1353.587,245.645,1360.408,248.241,1363.818,249.54L1367.228,250.838" id="L_Ingestion_ClickHouse_5" class=" edge-thickness-normal edge-pattern-solid edge-thickness-normal edge-pattern-solid flowchart-link" style="" marker-end="url(#mermaid-23518f7c-9a00-4bde-96d0-633c3f357350_flowchart-v2-pointEnd)"></path><path d="M545.483,384.061L549.65,383.314C553.817,382.567,562.15,381.072,579.535,380.325C596.919,379.578,623.356,379.578,649.792,379.578C676.228,379.578,702.664,379.578,722.933,367.245C743.202,354.912,757.305,330.245,771.076,306.157C784.847,282.069,798.288,258.56,805.008,246.805L811.728,235.051" id="L_Admin_UI_API_Gateway_6" class=" edge-thickness-normal edge-pattern-solid edge-thickness-normal edge-pattern-solid flowchart-link" style="" marker-end="url(#mermaid-23518f7c-9a00-4bde-96d0-633c3f357350_flowchart-v2-pointEnd)"></path><path d="M844.091,231.578L858.276,257.212C872.461,282.845,900.83,334.112,919.115,359.745C937.399,385.378,945.597,385.378,953.129,385.378C960.661,385.378,967.526,385.378,970.959,385.378L974.392,385.378" id="L_API_Gateway_Query_7" class=" edge-thickness-normal edge-pattern-solid edge-thickness-normal edge-pattern-solid flowchart-link" style="" marker-end="url(#mermaid-23518f7c-9a00-4bde-96d0-633c3f357350_flowchart-v2-pointEnd)"></path><path d="M1115.711,358.378L1127.509,352.873C1139.307,347.367,1162.904,336.357,1186.041,330.851C1209.178,325.346,1231.856,325.346,1254.533,325.346C1277.211,325.346,1299.889,325.346,1315.261,322.535C1330.633,319.725,1338.7,314.104,1346.22,308.864C1353.739,303.624,1360.712,298.765,1364.199,296.336L1367.685,293.906" id="L_Query_ClickHouse_8" class=" edge-thickness-normal edge-pattern-solid edge-thickness-normal edge-pattern-solid flowchart-link" style="" marker-end="url(#mermaid-23518f7c-9a00-4bde-96d0-633c3f357350_flowchart-v2-pointEnd)"></path><path d="M545.483,418.669L549.65,419.487C553.817,420.305,562.15,421.942,579.535,422.76C596.919,423.578,623.356,423.578,649.792,423.578C676.228,423.578,702.664,423.578,723.192,407.578C743.719,391.578,758.338,359.578,772.681,328.185C787.023,296.791,801.088,266.004,808.12,250.61L815.153,235.217" id="L_Admin_UI_API_Gateway_9" class=" edge-thickness-normal edge-pattern-solid edge-thickness-normal edge-pattern-solid flowchart-link" style="" marker-end="url(#mermaid-23518f7c-9a00-4bde-96d0-633c3f357350_flowchart-v2-pointEnd)"></path><path d="M881.099,231.578L889.116,235.745C897.133,239.912,913.166,248.245,923.267,252.412C933.367,256.578,937.533,256.578,941.033,256.578C944.533,256.578,947.367,256.578,948.783,256.578L950.2,256.578" id="L_API_Gateway_Management_10" class=" edge-thickness-normal edge-pattern-solid edge-thickness-normal edge-pattern-solid flowchart-link" style="" marker-end="url(#mermaid-23518f7c-9a00-4bde-96d0-633c3f357350_flowchart-v2-pointEnd)"></path><path d="M1081.063,283.578L1098.636,304.018C1116.209,324.458,1151.354,365.337,1180.266,385.776C1209.178,406.216,1231.856,406.216,1254.533,406.216C1277.211,406.216,1299.889,406.216,1313.311,406.216C1326.733,406.216,1330.9,406.216,1334.4,406.216C1337.9,406.216,1340.733,406.216,1342.15,406.216L1343.567,406.216" id="L_Management_Postgres_11" class=" edge-thickness-normal edge-pattern-solid edge-thickness-normal edge-pattern-solid flowchart-link" style="" marker-end="url(#mermaid-23518f7c-9a00-4bde-96d0-633c3f357350_flowchart-v2-pointEnd)"></path><path d="M1109.896,229.578L1122.663,222.955C1135.43,216.331,1160.965,203.085,1185.072,196.461C1209.178,189.838,1231.856,189.838,1254.533,189.838C1277.211,189.838,1299.889,189.838,1313.67,187.517C1327.451,185.197,1332.336,180.556,1336.738,176.374C1341.139,172.193,1345.057,168.47,1347.016,166.609L1348.975,164.748" id="L_Management_Redis_12" class=" edge-thickness-normal edge-pattern-solid edge-thickness-normal edge-pattern-solid flowchart-link" style="" marker-end="url(#mermaid-23518f7c-9a00-4bde-96d0-633c3f357350_flowchart-v2-pointEnd)"></path></g><g class="edgeLabels"><g class="edgeLabel" transform="translate(288.43333435058594, 142.5782642364502)"><g class="label" transform="translate(-22.800003051757812, -12)"><foreignObject width="45.600006103515625" height="24"><div style="display: table-cell; white-space: nowrap; line-height: 1.5; max-width: 200px; text-align: center;" xmlns="http://www.w3.org/1999/xhtml" class="labelBkg"><span class="edgeLabel "><p>Action</p></span></div></foreignObject></g></g><g class="edgeLabel" transform="translate(649.7916717529297, 142.5782642364502)"><g class="label" transform="translate(-49.40833282470703, -12)"><foreignObject width="98.81666564941406" height="24"><div style="display: table-cell; white-space: nowrap; line-height: 1.5; max-width: 200px; text-align: center;" xmlns="http://www.w3.org/1999/xhtml" class="labelBkg"><span class="edgeLabel "><p>POST /collect</p></span></div></foreignObject></g></g><g class="edgeLabel" transform="translate(649.7916717529297, 246.5782642364502)"><g class="label" transform="translate(-54.30833435058594, -12)"><foreignObject width="108.61666870117188" height="24"><div style="display: table-cell; white-space: nowrap; line-height: 1.5; max-width: 200px; text-align: center;" xmlns="http://www.w3.org/1999/xhtml" class="labelBkg"><span class="edgeLabel "><p>Webhook/Hook</p></span></div></foreignObject></g></g><g class="edgeLabel"><g class="label" transform="translate(0, 0)"><foreignObject width="0" height="0"><div style="display: table-cell; white-space: nowrap; line-height: 1.5; max-width: 200px; text-align: center;" xmlns="http://www.w3.org/1999/xhtml" class="labelBkg"><span class="edgeLabel "></span></div></foreignObject></g></g><g class="edgeLabel" transform="translate(1254.533348083496, 85.83775520324707)"><g class="label" transform="translate(-16.449996948242188, -12)"><foreignObject width="32.899993896484375" height="24"><div style="display: table-cell; white-space: nowrap; line-height: 1.5; max-width: 200px; text-align: center;" xmlns="http://www.w3.org/1999/xhtml" class="labelBkg"><span class="edgeLabel "><p>Push</p></span></div></foreignObject></g></g><g class="edgeLabel" transform="translate(1254.533348083496, 233.83775520324707)"><g class="label" transform="translate(-41.991668701171875, -12)"><foreignObject width="83.98333740234375" height="24"><div style="display: table-cell; white-space: nowrap; line-height: 1.5; max-width: 200px; text-align: center;" xmlns="http://www.w3.org/1999/xhtml" class="labelBkg"><span class="edgeLabel "><p>Batch Write</p></span></div></foreignObject></g></g><g class="edgeLabel" transform="translate(649.7916717529297, 379.5782642364502)"><g class="label" transform="translate(-45.099998474121094, -12)"><foreignObject width="90.19999694824219" height="24"><div style="display: table-cell; white-space: nowrap; line-height: 1.5; max-width: 200px; text-align: center;" xmlns="http://www.w3.org/1999/xhtml" class="labelBkg"><span class="edgeLabel "><p>GET /stats/*</p></span></div></foreignObject></g></g><g class="edgeLabel"><g class="label" transform="translate(0, 0)"><foreignObject width="0" height="0"><div style="display: table-cell; white-space: nowrap; line-height: 1.5; max-width: 200px; text-align: center;" xmlns="http://www.w3.org/1999/xhtml" class="labelBkg"><span class="edgeLabel "></span></div></foreignObject></g></g><g class="edgeLabel" transform="translate(1254.533348083496, 325.34571838378906)"><g class="label" transform="translate(-21.199996948242188, -12)"><foreignObject width="42.399993896484375" height="24"><div style="display: table-cell; white-space: nowrap; line-height: 1.5; max-width: 200px; text-align: center;" xmlns="http://www.w3.org/1999/xhtml" class="labelBkg"><span class="edgeLabel "><p>Query</p></span></div></foreignObject></g></g><g class="edgeLabel" transform="translate(649.7916717529297, 423.5782642364502)"><g class="label" transform="translate(-41.25, -12)"><foreignObject width="82.5" height="24"><div style="display: table-cell; white-space: nowrap; line-height: 1.5; max-width: 200px; text-align: center;" xmlns="http://www.w3.org/1999/xhtml" class="labelBkg"><span class="edgeLabel "><p>POST /sites</p></span></div></foreignObject></g></g><g class="edgeLabel"><g class="label" transform="translate(0, 0)"><foreignObject width="0" height="0"><div style="display: table-cell; white-space: nowrap; line-height: 1.5; max-width: 200px; text-align: center;" xmlns="http://www.w3.org/1999/xhtml" class="labelBkg"><span class="edgeLabel "></span></div></foreignObject></g></g><g class="edgeLabel"><g class="label" transform="translate(0, 0)"><foreignObject width="0" height="0"><div style="display: table-cell; white-space: nowrap; line-height: 1.5; max-width: 200px; text-align: center;" xmlns="http://www.w3.org/1999/xhtml" class="labelBkg"><span class="edgeLabel "></span></div></foreignObject></g></g><g class="edgeLabel" transform="translate(1254.533348083496, 189.83775520324707)"><g class="label" transform="translate(-43.03333282470703, -12)"><foreignObject width="86.06666564941406" height="24"><div style="display: table-cell; white-space: nowrap; line-height: 1.5; max-width: 200px; text-align: center;" xmlns="http://www.w3.org/1999/xhtml" class="labelBkg"><span class="edgeLabel "><p>Gen API Key</p></span></div></foreignObject></g></g></g><g class="nodes"><g class="node default  " id="flowchart-WP_User-38" transform="translate(136.81666564941406, 142.5782642364502)"><rect class="basic label-container" style="" data-id="abc" data-et="node" x="-103.81666564941406" y="-27" width="207.63333129882812" height="54"></rect><g class="label" style="" transform="translate(-73.81666564941406, -12)"><rect></rect><foreignObject width="147.63333129882812" height="24"><div style="display: table-cell; white-space: nowrap; line-height: 1.5; max-width: 200px; text-align: center;" xmlns="http://www.w3.org/1999/xhtml"><span class="nodeLabel "><p>Người dùng truy cập</p></span></div></foreignObject></g></g><g class="node default  " id="flowchart-WP_JS-39" transform="translate(453.35833740234375, 142.5782642364502)"><rect class="basic label-container" style="" data-id="abc" data-et="node" x="-90.89167022705078" y="-27" width="181.78334045410156" height="54"></rect><g class="label" style="" transform="translate(-60.89167022705078, -12)"><rect></rect><foreignObject width="121.78334045410156" height="24"><div style="display: table-cell; white-space: nowrap; line-height: 1.5; max-width: 200px; text-align: center;" xmlns="http://www.w3.org/1999/xhtml"><span class="nodeLabel "><p>Plugin JS Tracker</p></span></div></foreignObject></g></g><g class="node default  " id="flowchart-WP_PHP-40" transform="translate(453.35833740234375, 246.5782642364502)"><rect class="basic label-container" style="" data-id="abc" data-et="node" x="-88.68333435058594" y="-27" width="177.36666870117188" height="54"></rect><g class="label" style="" transform="translate(-58.68333435058594, -12)"><rect></rect><foreignObject width="117.36666870117188" height="24"><div style="display: table-cell; white-space: nowrap; line-height: 1.5; max-width: 200px; text-align: center;" xmlns="http://www.w3.org/1999/xhtml"><span class="nodeLabel "><p>Plugin PHP Hook</p></span></div></foreignObject></g></g><g class="node default  " id="flowchart-API_Gateway-41" transform="translate(829.1500091552734, 204.5782642364502)"><rect class="basic label-container" style="" data-id="abc" data-et="node" x="-75.05000305175781" y="-27" width="150.10000610351562" height="54"></rect><g class="label" style="" transform="translate(-45.05000305175781, -12)"><rect></rect><foreignObject width="90.10000610351562" height="24"><div style="display: table-cell; white-space: nowrap; line-height: 1.5; max-width: 200px; text-align: center;" xmlns="http://www.w3.org/1999/xhtml"><span class="nodeLabel "><p>API Gateway</p></span></div></foreignObject></g></g><g class="node default  " id="flowchart-Ingestion-42" transform="translate(1057.8500137329102, 103)"><rect class="basic label-container" style="" data-id="abc" data-et="node" x="-90.60832977294922" y="-27" width="181.21665954589844" height="54"></rect><g class="label" style="" transform="translate(-60.60832977294922, -12)"><rect></rect><foreignObject width="121.21665954589844" height="24"><div style="display: table-cell; white-space: nowrap; line-height: 1.5; max-width: 200px; text-align: center;" xmlns="http://www.w3.org/1999/xhtml"><span class="nodeLabel "><p>Ingestion Service</p></span></div></foreignObject></g></g><g class="node default  " id="flowchart-Query-43" transform="translate(1057.8500137329102, 385.37821769714355)"><rect class="basic label-container" style="" data-id="abc" data-et="node" x="-79.45833587646484" y="-27" width="158.9166717529297" height="54"></rect><g class="label" style="" transform="translate(-49.458335876464844, -12)"><rect></rect><foreignObject width="98.91667175292969" height="24"><div style="display: table-cell; white-space: nowrap; line-height: 1.5; max-width: 200px; text-align: center;" xmlns="http://www.w3.org/1999/xhtml"><span class="nodeLabel "><p>Query Service</p></span></div></foreignObject></g></g><g class="node default  " id="flowchart-Management-44" transform="translate(1057.8500137329102, 256.5782642364502)"><rect class="basic label-container" style="" data-id="abc" data-et="node" x="-103.6500015258789" y="-27" width="207.3000030517578" height="54"></rect><g class="label" style="" transform="translate(-73.6500015258789, -12)"><rect></rect><foreignObject width="147.3000030517578" height="24"><div style="display: table-cell; white-space: nowrap; line-height: 1.5; max-width: 200px; text-align: center;" xmlns="http://www.w3.org/1999/xhtml"><span class="nodeLabel "><p>Management Service</p></span></div></foreignObject></g></g><g class="node default  " id="flowchart-Redis-45" transform="translate(1434.583351135254, 137.83775520324707)"><path d="M0,14.239598466789896 a82.70833587646484,14.239598466789896 0,0,0 165.4166717529297,0 a82.70833587646484,14.239598466789896 0,0,0 -165.4166717529297,0 l0,53.2395984667899 a82.70833587646484,14.239598466789896 0,0,0 165.4166717529297,0 l0,-53.2395984667899" class="basic label-container" style="" label-offset-y="14.239598466789896" transform="translate(-82.70833587646484, -40.85939770018484)"></path><g class="label" style="" transform="translate(-75.20833587646484, -12)"><rect></rect><foreignObject width="150.4166717529297" height="24"><div style="display: table-cell; white-space: nowrap; line-height: 1.5; max-width: 200px; text-align: center;" xmlns="http://www.w3.org/1999/xhtml"><span class="nodeLabel "><p>Redis - Queue/Cache</p></span></div></foreignObject></g></g><g class="node default  " id="flowchart-ClickHouse-46" transform="translate(1434.583351135254, 276.4754638671875)"><path d="M0,12.61067814356659 a63.616668701171875,12.61067814356659 0,0,0 127.23333740234375,0 a63.616668701171875,12.61067814356659 0,0,0 -127.23333740234375,0 l0,51.61067814356659 a63.616668701171875,12.61067814356659 0,0,0 127.23333740234375,0 l0,-51.61067814356659" class="basic label-container" style="" label-offset-y="12.61067814356659" transform="translate(-63.616668701171875, -38.41601721534988)"></path><g class="label" style="" transform="translate(-56.116668701171875, -12)"><rect></rect><foreignObject width="112.23333740234375" height="24"><div style="display: table-cell; white-space: nowrap; line-height: 1.5; max-width: 200px; text-align: center;" xmlns="http://www.w3.org/1999/xhtml"><span class="nodeLabel "><p>ClickHouse - DB</p></span></div></foreignObject></g></g><g class="node default  " id="flowchart-Postgres-47" transform="translate(1434.583351135254, 406.2159729003906)"><path d="M0,14.549660264455849 a87.01667022705078,14.549660264455849 0,0,0 174.03334045410156,0 a87.01667022705078,14.549660264455849 0,0,0 -174.03334045410156,0 l0,53.54966026445585 a87.01667022705078,14.549660264455849 0,0,0 174.03334045410156,0 l0,-53.54966026445585" class="basic label-container" style="" label-offset-y="14.549660264455849" transform="translate(-87.01667022705078, -41.32449039668377)"></path><g class="label" style="" transform="translate(-79.51667022705078, -12)"><rect></rect><foreignObject width="159.03334045410156" height="24"><div style="display: table-cell; white-space: nowrap; line-height: 1.5; max-width: 200px; text-align: center;" xmlns="http://www.w3.org/1999/xhtml"><span class="nodeLabel "><p>PostgreSQL - User Info</p></span></div></foreignObject></g></g><g class="node default  " id="flowchart-Admin_UI-48" transform="translate(453.35833740234375, 400.5782642364502)"><rect class="basic label-container" style="" data-id="abc" data-et="node" x="-92.125" y="-27" width="184.25" height="54"></rect><g class="label" style="" transform="translate(-62.125, -12)"><rect></rect><foreignObject width="124.25" height="24"><div style="display: table-cell; white-space: nowrap; line-height: 1.5; max-width: 200px; text-align: center;" xmlns="http://www.w3.org/1999/xhtml"><span class="nodeLabel "><p>Admin Dashboard</p></span></div></foreignObject></g></g></g></g></g></svg>